HIERARCHY
ROOT Hips
{
	OFFSET -0.001795 -0.223333 0.028219
	CHANNELS 6 Xposition Yposition Zposition Zrotation Yrotation Xrotation 
	JOINT LeftUpLeg
	{
		OFFSET 0.069520 -0.091406 -0.006815
		CHANNELS 3 Zrotation Yrotation Xrotation
		JOINT LeftLeg
		{
			OFFSET 0.034277 -0.375199 -0.004496
			CHANNELS 3 Zrotation Yrotation Xrotation
			JOINT LeftFoot
			{
				OFFSET -0.013596 -0.397961 -0.043693
				CHANNELS 3 Zrotation Yrotation Xrotation
				JOINT LeftToe
				{
					OFFSET 0.026358 -0.055791 0.119288
					CHANNELS 3 Zrotation Yrotation Xrotation
					End Site
					{
						OFFSET 0.000000 0.000000 0.000000
					}
				}
			}
		}
	}
	JOINT RightUpLeg
	{
		OFFSET -0.067670 -0.090522 -0.004320
		CHANNELS 3 Zrotation Yrotation Xrotation
		JOINT RightLeg
		{
			OFFSET -0.038290 -0.382569 -0.008850
			CHANNELS 3 Zrotation Yrotation Xrotation
			JOINT RightFoot
			{
				OFFSET 0.015774 -0.398415 -0.042312
				CHANNELS 3 Zrotation Yrotation Xrotation
				JOINT RightToe
				{
					OFFSET -0.025372 -0.048144 0.123348
					CHANNELS 3 Zrotation Yrotation Xrotation
					End Site
					{
						OFFSET 0.000000 0.000000 0.000000
					}
				}
			}
		}
	}
	JOINT Spine
	{
		OFFSET -0.002533 0.108963 -0.026696
		CHANNELS 3 Zrotation Yrotation Xrotation
		JOINT Spine1
		{
			OFFSET 0.005487 0.135180 0.001092
			CHANNELS 3 Zrotation Yrotation Xrotation
			JOINT Spine2
			{
				OFFSET 0.001457 0.052922 0.025425
				CHANNELS 3 Zrotation Yrotation Xrotation
				JOINT Neck
				{
					OFFSET -0.002778 0.213870 -0.042857
					CHANNELS 3 Zrotation Yrotation Xrotation
					JOINT Head
					{
						OFFSET 0.005152 0.064970 0.051349
						CHANNELS 3 Zrotation Yrotation Xrotation
						End Site
						{
							OFFSET 0.000000 0.000000 0.000000
						}
					}
				}
				JOINT LeftShoulder
				{
					OFFSET 0.078845 0.121749 -0.034090
					CHANNELS 3 Zrotation Yrotation Xrotation
					JOINT LeftArm
					{
						OFFSET 0.090977 0.030469 -0.008868
						CHANNELS 3 Zrotation Yrotation Xrotation
						JOINT LeftForeArm
						{
							OFFSET 0.259612 -0.012772 -0.027456
							CHANNELS 3 Zrotation Yrotation Xrotation
							JOINT LeftHand
							{
								OFFSET 0.249234 0.008986 -0.001171
								CHANNELS 3 Zrotation Yrotation Xrotation
								End Site
								{
									OFFSET 0.000000 0.000000 0.000000
								}
							}
						}
					}
				}
				JOINT RightShoulder
				{
					OFFSET -0.081759 0.118833 -0.038615
					CHANNELS 3 Zrotation Yrotation Xrotation
					JOINT RightArm
					{
						OFFSET -0.096012 0.032551 -0.009143
						CHANNELS 3 Zrotation Yrotation Xrotation
						JOINT RightForeArm
						{
							OFFSET -0.253742 -0.013329 -0.021401
							CHANNELS 3 Zrotation Yrotation Xrotation
							JOINT RightHand
							{
								OFFSET -0.255298 0.007772 -0.005559
								CHANNELS 3 Zrotation Yrotation Xrotation
								End Site
								{
									OFFSET 0.000000 0.000000 0.000000
								}
							}
						}
					}
				}
			}
		}
	}
}
MOTION
Frames: 11
Frame Time: 0.050000
0.239168 0.716881 0.374749 2.220976 -21.633260 15.213643 19.888460 14.040617 -59.220129 -1.670877 3.399517 59.315220 7.834643 14.773997 -10.902265 0.000000 0.000000 0.000000 -46.314356 -4.286154 -47.631794 16.560119 -3.834294 30.328960 -15.610400 -33.306145 24.564366 0.000000 0.000000 0.000000 6.437778 1.760833 74.451467 3.850742 -0.070677 -32.373055 1.468865 1.021532 22.858616 -11.460259 5.333907 -56.061277 0.000000 0.000000 0.000000 -14.896598 -31.660604 16.335290 -52.767234 -63.254663 24.633311 17.380773 -36.445055 -3.545735 0.000000 0.000000 0.000000 -3.237306 37.925099 12.487595 28.660050 44.543158 5.717561 -16.764994 16.797355 -1.654411 0.000000 0.000000 0.000000 
0.212692 0.723817 0.371238 2.995688 -21.860210 13.901288 20.096245 13.468885 -56.933097 -1.230588 3.131597 57.197138 7.539639 14.266007 -9.045660 0.000000 0.000000 0.000000 -44.958137 -4.314864 -49.503659 19.295342 -5.113393 33.867942 -15.308476 -33.533879 21.496430 0.000000 0.000000 0.000000 7.241718 1.216869 74.230504 4.477898 -0.144219 -32.831740 1.434327 1.225179 24.249626 -10.532455 5.190076 -55.970804 0.000000 0.000000 0.000000 -15.447346 -31.610743 16.376402 -54.606336 -62.413176 25.040855 15.450258 -34.354027 -2.790000 0.000000 0.000000 0.000000 -3.365642 37.767435 12.256117 29.378894 46.455515 6.390625 -15.005756 16.837859 -1.437698 0.000000 0.000000 0.000000 
0.180816 0.735164 0.368163 3.873839 -23.633329 13.599038 21.910424 13.995543 -53.084264 -1.750805 3.590628 52.602629 7.575436 14.599312 -3.246198 0.000000 0.000000 0.000000 -42.866572 -3.482502 -51.654683 19.577089 -5.217763 36.203266 -15.116736 -33.954860 19.669169 0.000000 0.000000 0.000000 7.486448 1.808552 73.655496 3.970064 -0.141839 -32.098903 1.804261 0.290825 23.405758 -12.586512 5.645430 -55.481855 0.000000 0.000000 0.000000 -19.310765 -29.942017 16.973745 -54.561323 -60.109431 23.436278 12.861838 -34.545619 -1.967852 0.000000 0.000000 0.000000 -3.563296 37.729269 12.101720 30.899548 46.321761 6.766123 -14.740707 19.671366 -1.696540 0.000000 0.000000 0.000000 
0.147906 0.744445 0.365789 5.473130 -21.969123 12.205944 20.596021 11.816064 -51.103429 -0.359571 2.461838 50.796975 7.268847 14.114230 -2.371898 0.000000 0.000000 0.000000 -41.425994 -3.607909 -50.948833 20.545855 -5.914907 38.728353 -15.572282 -35.368482 15.288360 0.000000 0.000000 0.000000 9.910270 -0.883384 71.562888 4.256533 -0.317363 -29.926355 0.007413 -0.870931 22.935855 -10.880471 5.266036 -54.698782 0.000000 0.000000 0.000000 -19.625968 -30.672816 17.786406 -56.611053 -58.470931 23.644450 16.034634 -33.337551 -2.796143 0.000000 0.000000 0.000000 -2.977109 37.594349 12.097587 31.092018 46.205166 6.659312 -13.189776 21.252197 -1.617766 0.000000 0.000000 0.000000 
0.117138 0.751969 0.363025 6.572492 -23.938719 10.286552 21.081756 11.330885 -46.533187 -2.388652 4.145799 48.505200 7.924191 15.445604 -3.945841 0.000000 0.000000 0.000000 -39.503414 -2.275509 -49.968804 21.320093 -5.832824 40.266490 -13.220748 -33.716427 5.781418 0.000000 0.000000 0.000000 11.458954 -1.013704 72.085187 1.090146 0.277528 -32.019457 0.129003 -2.890253 25.978044 -10.350339 5.124316 -53.572456 0.000000 0.000000 0.000000 -20.422650 -30.395139 18.432580 -54.353230 -57.581945 21.493686 15.438410 -32.647835 -2.566326 0.000000 0.000000 0.000000 -2.653179 37.754933 11.852686 29.680803 45.693803 5.596945 -12.726300 20.631449 -1.542256 0.000000 0.000000 0.000000 
0.088603 0.756140 0.359535 7.732043 -24.600962 9.634292 17.793325 9.463254 -45.683245 0.906083 2.419470 48.151757 7.648292 14.928210 -3.727968 0.000000 0.000000 0.000000 -37.426794 -1.502026 -50.433079 20.415519 -5.314620 42.193024 -12.984399 -34.539362 1.366611 0.000000 0.000000 0.000000 11.922431 -0.975062 71.550363 1.766398 0.041036 -29.720132 -0.580023 -3.395199 24.089419 -10.216127 5.083269 -52.202202 0.000000 0.000000 0.000000 -17.495157 -28.365018 16.398184 -58.116289 -57.624092 24.083632 15.507853 -31.520318 -2.493359 0.000000 0.000000 0.000000 -2.558137 38.223466 12.012176 27.383398 46.148501 4.972249 -13.484545 18.570021 -1.476014 0.000000 0.000000 0.000000 
0.059930 0.760791 0.356238 8.364942 -27.140875 10.340794 17.715863 10.462607 -46.632516 1.757696 2.734659 51.764799 8.266348 15.849791 2.693920 0.000000 0.000000 0.000000 -34.305006 -0.026117 -53.677898 19.262213 -4.607071 45.586433 -13.206039 -36.588887 -1.755524 0.000000 0.000000 0.000000 11.525051 0.283982 69.931389 1.755606 -0.051171 -27.907561 -0.550231 -2.874170 23.439709 -11.946068 5.512605 -52.794062 0.000000 0.000000 0.000000 -16.961262 -25.998048 15.058809 -58.739691 -55.857178 23.242699 12.898325 -33.687666 -1.807503 0.000000 0.000000 0.000000 -3.168948 37.791836 11.734588 23.902865 46.079923 3.738221 -11.873912 19.267985 -1.312607 0.000000 0.000000 0.000000 
0.030447 0.764085 0.354466 9.165866 -28.242497 10.426478 15.435280 10.299024 -49.358793 2.384599 2.869433 55.694219 9.339294 17.847761 1.652672 0.000000 0.000000 0.000000 -32.366110 0.828217 -55.651584 19.455568 -4.668229 48.026597 -13.732942 -37.915967 -1.166231 0.000000 0.000000 0.000000 11.589028 0.829298 71.335000 1.858789 -0.024379 -28.870507 -0.768463 -2.830420 22.824308 -12.743853 5.705338 -53.210942 0.000000 0.000000 0.000000 -16.203636 -25.176390 14.361891 -57.918634 -52.999838 20.920119 14.075571 -35.810885 -2.183552 0.000000 0.000000 0.000000 -4.156188 38.060733 11.636346 21.816491 45.597348 3.030006 -10.082220 19.478005 -1.053904 0.000000 0.000000 0.000000 
0.002290 0.764143 0.355697 10.171974 -29.076360 10.276331 13.867008 10.562493 -52.232870 -0.101919 4.639212 56.551807 8.683865 16.767705 -5.895934 0.000000 0.000000 0.000000 -29.661830 1.992244 -57.274919 18.859271 -4.277087 52.125598 -12.638171 -36.607107 -5.285734 0.000000 0.000000 0.000000 11.728446 1.188812 71.729309 1.045004 0.075477 -27.453670 -1.300541 -2.887780 22.227070 -12.274146 5.592069 -52.591524 0.000000 0.000000 0.000000 -16.118404 -24.985416 14.264453 -55.537192 -50.595707 18.210797 15.462723 -36.856685 -2.653119 0.000000 0.000000 0.000000 -5.217414 38.527652 11.536308 19.108563 44.666423 2.062762 -9.597071 19.268263 -0.976077 0.000000 0.000000 0.000000 
-0.024394 0.763575 0.361386 10.397380 -29.503795 10.154243 9.885550 9.044065 -54.795556 -3.423400 6.159335 52.385747 9.886333 20.832600 -16.639048 0.000000 0.000000 0.000000 -26.295913 3.243476 -56.433336 18.819477 -3.807202 54.693369 -13.649910 -40.338663 -8.412381 0.000000 0.000000 0.000000 11.145654 2.016702 73.001093 0.705266 0.164514 -27.859001 -1.333253 -2.528274 23.473303 -13.073114 5.833307 -52.840463 0.000000 0.000000 0.000000 -15.590889 -26.290250 14.663579 -54.407384 -49.495900 16.936425 18.770603 -37.407865 -3.785288 0.000000 0.000000 0.000000 -7.570001 39.667625 11.197826 18.990941 45.514090 2.106430 -9.033772 17.149958 -0.764247 0.000000 0.000000 0.000000 
-0.048712 0.760856 0.371670 8.950512 -30.062484 11.299958 6.674575 8.070314 -57.843115 -3.339156 5.285270 49.214197 9.181360 19.086614 -17.603188 0.000000 0.000000 0.000000 -23.291651 4.483958 -56.789935 19.848020 -4.135644 56.579102 -13.561022 -41.384844 -10.867728 0.000000 0.000000 0.000000 9.606526 3.569297 74.405772 -0.229537 0.376099 -28.981463 -0.009360 -1.804694 23.959187 -12.326652 5.643876 -53.047118 0.000000 0.000000 0.000000 -12.771223 -25.877055 13.432965 -57.196174 -49.011616 18.013726 17.029404 -38.302138 -3.300611 0.000000 0.000000 0.000000 -7.981549 40.527285 11.378325 19.815820 45.381521 2.486272 -10.160672 18.733843 -1.015425 0.000000 0.000000 0.000000 
